:SAMPLES-PER-SECOND 24
:FULLY-SPECIFIED
:DEGREES
393
root  -2.04003 38.4163 29.6416 176.338 74.2487 179.398
RightUpLeg  0.420011 -16.0099 -19.8149
RightLeg  28.5351 10.215 5.76657
RightFoot  -9.38729 -0.381328 18.3291
RightToes  -1.74623e-010 0 -2.59999e-017
Spine  5.20893 2.91946 4.61882
Spine1  16.298 4.11073 -3.66846
HEad  -30.5106 49.7125 -35.6618
LeftShoulder1  1.84957 -2.82562 -22.9386
LeftArm  20.4797 14.9998 -40.8379
LeftForeArm  4.1481 -30.7363 -6.49357
LeftHand  -0.540428 2.18807 19.4465
RightShoulder  3.25872 5.49165 30.3257
RightArm  4.93156 -9.02419 41.526
RightForeArm  127.2 76.2857 131.937
RightHand  0.56526 -8.95376 -18.8385
LeftUpLeg  -9.85597 12.4176 14.3671
LeftLeg  32.6131 -0.872735 -0.226924
LeftFoot  -5.22622 0.895968 -16.0703
LeftToes  -6.27559e-011 -2.10356e-011 8.24929e-012
394
root  -1.77974 39.8243 29.1122 173.111 77.4331 175.391
RightUpLeg  0.689124 -14.6992 -20.2809
RightLeg  22.162 8.78775 3.73567
RightFoot  1.96986 -2.03019 17.5727
RightToes  -1.74623e-010 0 -2.59999e-017
Spine  4.36327 3.44785 5.60717
Spine1  14.5017 5.19472 -5.01221
HEad  -25.949 51.8178 -32.2414
LeftShoulder1  1.90976 -2.84641 -23.8335
LeftArm  19.4469 23.3859 -39.0124
LeftForeArm  7.62994 -33.1555 -6.92197
LeftHand  -0.51688 2.09223 18.069
RightShoulder  3.35616 5.60211 30.9681
RightArm  7.32252 -12.8528 40.042
RightForeArm  145.81 71.5884 147.569
RightHand  0.0410544 -5.90331 -10.9096
LeftUpLeg  -7.15599 14.8025 13.6113
LeftLeg  27.7619 -2.465 -1.04774
LeftFoot  4.67037 2.26372 -16.2494
LeftToes  -6.27559e-011 -2.10356e-011 8.24929e-012
395
root  -1.74127 40.6013 28.6958 170.156 79.0074 171.779
RightUpLeg  -0.67199 -16.2252 -20.9007
RightLeg  22.157 3.67404 1.41443
RightFoot  4.35991 -1.89583 13.8626
RightToes  -1.74623e-010 0 -2.59999e-017
Spine  3.69283 3.68842 6.29832
Spine1  14.4631 5.81508 -5.69242
HEad  -24.2079 51.3428 -29.7432
LeftShoulder1  1.945 -3.05607 -23.3917
LeftArm  18.3005 28.9292 -38.3802
LeftForeArm  9.79056 -36.1192 -7.60514
LeftHand  -0.547929 1.76782 17.4782
RightShoulder  3.25984 5.55963 30.0628
RightArm  9.06357 -13.257 37.9826
RightForeArm  156.652 65.9336 156.533
RightHand  -0.110013 -2.75939 -4.3907
LeftUpLeg  -8.39823 15.816 13.3324
LeftLeg  28.8697 -5.46306 -2.9184
LeftFoot  10.0548 2.97615 -15.9914
LeftToes  -6.27559e-011 -2.10356e-011 8.24929e-012
396
root  -1.88891 40.631 28.3864 169.1 79.0465 169.716
RightUpLeg  -2.67598 -18.6314 -21.7267
RightLeg  25.7732 1.80617 0.72695
RightFoot  1.79797 -1.44822 12.6349
RightToes  -1.74623e-010 0 -2.59999e-017
Spine  3.11712 3.70949 7.00963
Spine1  15.411 6.29287 -6.99646
HEad  -24.7062 49.6087 -28.94
LeftShoulder1  1.96675 -3.41345 -22.1067
LeftArm  17.3429 31.7118 -38.2671
LeftForeArm  12.3743 -39.1429 -8.34211
LeftHand  -0.588024 1.49423 17.4607
RightShoulder  3.03594 5.26931 28.6698
RightArm  7.69074 -11.907 34.959
RightForeArm  160.583 59.3624 162.383
RightHand  -0.0909454 -2.86738 -3.56487
LeftUpLeg  -12.7263 15.0434 13.4707
LeftLeg  33.9714 -7.31124 -4.91909
LeftFoot  8.68013 2.81396 -16.1529
LeftToes  -6.27559e-011 -2.10356e-011 8.24929e-012
397
root  -2.171 40.0807 28.1177 166.816 79.8697 165.949
RightUpLeg  -6.66649 -21.4302 -22.5999
RightLeg  30.786 5.55122 3.35149
RightFoot  3.28328 -1.94104 15.179
RightToes  -1.74623e-010 0 -2.59999e-017
Spine  3.68676 3.7852 7.55092
Spine1  14.8971 6.94339 -9.09503
HEad  -25.3647 47.3815 -27.83
LeftShoulder1  2.07845 -3.75842 -22.3061
LeftArm  14.7736 33.8632 -35.6035
LeftForeArm  15.1954 -43.4905 -9.60201
LeftHand  -0.524084 2.11634 18.4677
RightShoulder  2.77938 4.87113 27.2053
RightArm  3.85257 -8.4489 32.2993
RightForeArm  158.101 56.8837 163.712
RightHand  -0.19982 -2.85185 -8.35574
LeftUpLeg  -17.1731 14.1038 13.933
LeftLeg  36.7848 -4.94329 -3.59001
LeftFoot  6.88749 2.22143 -14.0963
LeftToes  -6.27559e-011 -2.10356e-011 8.24929e-012
398
root  -2.63462 38.8917 27.9183 165.222 81.1133 162.166
RightUpLeg  -14.2294 -25.1149 -22.2084
RightLeg  39.2921 7.01168 5.79924
RightFoot  3.73815 -2.31191 17.5595
RightToes  -1.74623e-010 0 -2.59999e-017
Spine  5.58992 3.95585 7.60293
Spine1  12.1258 7.38856 -10.5975
HEad  -24.4907 43.0719 -24.1184
LeftShoulder1  2.10472 -4.00224 -21.6977
LeftArm  10.505 35.3192 -34.8105
LeftForeArm  18.8468 -48.7657 -11.4049
LeftHand  -0.535266 2.30843 19.984
RightShoulder  2.45131 4.40261 24.9229
RightArm  0.714306 -5.91244 28.8236
RightForeArm  158.828 56.7686 163.901
RightHand  -0.427934 -1.48841 -12.7636
LeftUpLeg  -23.0307 13.361 15.1655
LeftLeg  38.846 -2.1825 -1.46025
LeftFoot  9.56377 2.03439 -11.2401
LeftToes  -6.27559e-011 -2.10356e-011 8.24929e-012
399
root  -3.22593 36.8828 27.6781 163.183 82.3047 157.548
RightUpLeg  -23.5814 -26.8823 -21.7181
RightLeg  50.6397 5.74709 7.09183
RightFoot  -3.72281 -1.29065 18.8856
RightToes  -1.74623e-010 0 -2.59999e-017
Spine  7.94404 4.00761 7.94761
Spine1  9.26342 7.80591 -12.3546
HEad  -24.135 34.0501 -18.9553
LeftShoulder1  2.01791 -4.17473 -19.8188
LeftArm  5.05284 34.6042 -37.0909
LeftForeArm  22.7367 -53.0675 -13.1401
LeftHand  -0.656668 2.01593 22.3889
RightShoulder  2.30664 4.16764 23.9669
RightArm  -6.94278 -5.95637 24.645
RightForeArm  157.126 61.1967 161.843
RightHand  -0.627838 -0.753538 -16.0817
LeftUpLeg  -30.2527 13.0238 17.3921
LeftLeg  45.9512 -4.42844 -4.53218
LeftFoot  7.87778 2.64898 -15.7008
LeftToes  -6.27559e-011 -2.10356e-011 8.24929e-012
400
root  -3.74067 34.7512 27.2602 143.267 85.0741 136.082
RightUpLeg  -30.8018 -24.8591 -22.9572
RightLeg  58.727 6.2873 10.6054
RightFoot  -12.583 0.128507 19.6268
RightToes  -1.74623e-010 0 -2.59999e-017
Spine  9.60197 3.50019 7.89448
Spine1  9.34875 7.86056 -13.8992
HEad  -26.2899 20.17 -12.3361
LeftShoulder1  2.25699 -4.28294 -22.6973
LeftArm  -0.318815 28.412 -35.4713
LeftForeArm  22.1841 -54.8984 -14.1945
LeftHand  -0.517653 2.95989 24.4905
RightShoulder  2.71191 4.75913 26.8285
RightArm  -17.5566 -3.98211 25.9552
RightForeArm  105.294 78.6272 113.342
RightHand  -1.71263 2.95356 -23.7534
LeftUpLeg  -32.865 14.0063 19.1793
LeftLeg  53.3901 -6.23488 -8.45579
LeftFoot  -4.6063 1.45378 -23.9249
LeftToes  -6.27559e-011 -2.10356e-011 8.24929e-012
401
root  -4.08176 33.2932 26.792 77.6035 86.4802 70.1938
RightUpLeg  -34.5099 -19.5935 -24.0222
RightLeg  61.4745 6.28874 11.8516
RightFoot  -19.3528 1.31991 20.4399
RightToes  -1.74623e-010 0 -2.59999e-017
Spine  10.4236 2.10303 4.2924
Spine1  11.2632 5.58144 -11.3213
HEad  -29.1925 3.9339 -1.02795
LeftShoulder1  2.71349 -4.4156 -28.2176
LeftArm  -3.54195 13.42 -35.2142
LeftForeArm  20.4731 -54.3445 -13.9702
LeftHand  -0.449646 3.42085 26.0727
RightShoulder  3.49775 5.78246 31.7813
RightArm  -21.2528 -0.866624 28.7835
RightForeArm  4.66319 54.5672 13.8785
RightHand  -2.71687 4.91386 -30.2979
LeftUpLeg  -31.7489 15.9338 19.1531
LeftLeg  56.7066 -4.43484 -6.68122
LeftFoot  -17.1194 -1.2125 -26.1649
LeftToes  -6.27559e-011 -2.10356e-011 8.24929e-012
402
root  -4.09872 33.0744 26.0534 32.9819 84.613 25.5605
RightUpLeg  -34.6661 -13.1831 -23.989
RightLeg  58.8351 5.00953 8.42526
RightFoot  -21.498 1.90747 22.8672
RightToes  -1.74623e-010 0 -2.59999e-017
Spine  11.7001 -0.276085 -2.2174
Spine1  10.3025 -0.0628388 -2.62069
HEad  -31.0156 -14.133 14.8497
LeftShoulder1  2.50471 -4.41045 -25.5195
LeftArm  -0.420742 -4.32684 -45.6588
LeftForeArm  28.6401 -59.7664 -16.6907
LeftHand  -0.693189 2.3246 26.3067
RightShoulder  4.10159 6.36824 35.658
RightArm  -5.12035 -9.37215 25.5136
RightForeArm  -2.19076 33.4834 7.0729
RightHand  -1.93558 3.35349 -25.5035
LeftUpLeg  -30.2637 16.8277 18.2303
LeftLeg  57.4848 -2.70497 -3.85982
LeftFoot  -22.0284 -2.19933 -24.4746
LeftToes  -6.27559e-011 -2.10356e-011 8.24929e-012
403
root  -3.53516 35.3797 24.7613 13.0509 79.3398 4.94244
RightUpLeg  -30.8856 -6.31087 -23.0951
RightLeg  42.7527 4.44369 4.21582
RightFoot  -8.49726 -0.736108 25.1741
RightToes  -1.74623e-010 0 -2.59999e-017
Spine  12.3771 -3.87759 -5.57561
Spine1  6.82874 -6.69221 7.83119
HEad  -30.7388 -31.7174 26.0368
LeftShoulder1  1.59632 -3.65204 -15.4091
LeftArm  4.23519 -11.4631 -59.4136
LeftForeArm  54.91 -73.9472 -35.0849
LeftHand  -0.320653 3.75729 21.5014
RightShoulder  3.94378 6.233 34.6337
RightArm  10.4444 -30.5325 18.0844
RightForeArm  6.77825 40.962 9.24866
RightHand  -1.86768 4.59886 -21.773
LeftUpLeg  -22.8993 18.1541 16.7468
LeftLeg  47.4511 0.216078 0.809109
LeftFoot  -17.433 -1.25004 -25.6087
LeftToes  -6.27559e-011 -2.10356e-011 8.24929e-012
404
root  -2.20302 39.1641 23.7469 9.56573 65.7192 -0.294556
RightUpLeg  -25.5462 -1.76246 -21.0881
RightLeg  18.1027 5.8853 1.94654
RightFoot  12.7337 -4.84002 22.8429
RightToes  -1.74623e-010 0 -2.59999e-017
Spine  10.1318 -7.42252 -6.12864
Spine1  4.9389 -11.1111 12.9604
HEad  -27.1699 -42.526 26.1277
LeftShoulder1  1.02581 -3.14894 -7.88343
LeftArm  5.4111 -7.02579 -66.4347
LeftForeArm  105.87 -80.8843 -83.0657
LeftHand  -0.0223527 5.30331 20.7555
RightShoulder  3.1172 5.52383 28.5902
RightArm  14.0713 -43.7662 7.66956
RightForeArm  15.0016 55.735 15.3721
RightHand  -1.60869 3.79342 -20.3966
LeftUpLeg  -8.00309 25.6439 13.9989
LeftLeg  23.3555 8.67962 4.38186
LeftFoot  0.347269 2.49276 -24.0558
LeftToes  -6.27559e-011 -2.10356e-011 8.24929e-012
405
root  -0.974633 42.6338 22.761 9.6423 45.7126 -4.04083
RightUpLeg  -32.1663 -2.89014 -14.2966
RightLeg  24.0854 11.3284 5.20472
RightFoot  18.2118 -4.59993 17.677
RightToes  -1.74623e-010 0 -2.59999e-017
Spine  8.95026 -8.15104 -2.50154
Spine1  5.79149 -12.2682 15.9241
HEad  -24.0762 -46.7738 24.7488
LeftShoulder1  1.21022 -3.93335 -8.80439
LeftArm  5.58678 -2.58197 -62.5938
LeftForeArm  92.4322 -80.2158 -71.6575
LeftHand  -0.137055 4.66368 20.9726
RightShoulder  2.56258 4.99676 24.0432
RightArm  14.6218 -37.4927 1.63788
RightForeArm  18.9325 64.5374 22.3309
RightHand  -1.04621 1.66598 -17.3346
LeftUpLeg  3.78312 5.02508 8.72328
LeftLeg  -1.17248 41.32 -3.37881
LeftFoot  24.712 6.20428 -19.2343
LeftToes  -6.27559e-011 -2.10356e-011 8.24929e-012
406
root  -0.648903 45.6887 21.9277 13.5098 27.3322 -6.20447
RightUpLeg  -45.4358 2.65438 -10.6861
RightLeg  60.6962 4.28589 7.007
RightFoot  11.7159 -2.85071 14.2915
RightToes  -1.74623e-010 0 -2.59999e-017
Spine  9.95092 -6.76095 -1.59647
Spine1  6.06812 -11.0173 16.5556
HEad  -23.1841 -48.0632 27.2846
LeftShoulder1  1.64999 -3.96756 -15.3147
LeftArm  3.35059 -3.31234 -48.2136
LeftForeArm  41.2324 -69.2159 -26.9765
LeftHand  -0.266166 3.73584 18.2887
RightShoulder  2.51024 4.98327 23.4255
RightArm  15.0433 -19.0101 4.74702
RightForeArm  19.3017 63.7837 21.6533
RightHand  -1.04731 2.6504 -15.2932
LeftUpLeg  -5.18965 18.799 2.22683
LeftLeg  8.26263 18.1913 -5.54373
LeftFoot  31.9499 7.36615 -18.9703
LeftToes  -6.27559e-011 -2.10356e-011 8.24929e-012
407
root  -0.424679 47.9901 20.8631 20.5396 11.4758 -10.1415
RightUpLeg  -51.6677 3.30999 -9.19297
RightLeg  94.7382 -0.227537 4.77439
RightFoot  9.77146 -1.94796 10.7259
RightToes  -1.74623e-010 0 -2.59999e-017
Spine  10.422 -4.14919 3.0085
Spine1  4.69765 -6.61765 10.9368
HEad  -24.4226 -47.0756 30.8703
LeftShoulder1  1.86281 -3.46825 -20.2879
LeftArm  1.52876 -1.73355 -36.5219
LeftForeArm  23.8121 -51.9174 -12.5838
LeftHand  -0.333493 3.31165 18.2738
RightShoulder  2.67625 5.22635 24.5585
RightArm  16.9212 1.24422 14.7838
RightForeArm  19.1773 63.0182 20.7926
RightHand  -1.16422 3.55879 -15.2742
LeftUpLeg  -32.8384 40.6534 -13.0005
LeftLeg  31.7759 -11.6081 -8.25824
LeftFoot  25.0676 5.45613 -16.9186
LeftToes  -6.27559e-011 -2.10356e-011 8.24929e-012
